<svg width="541" height="541" viewBox="0 0 541 541" fill="none" xmlns="http://www.w3.org/2000/svg">
<circle cx="270.5" cy="270.5" r="270.5" fill="#374151"/>
<path d="M139.89 280.36C139.33 280.78 138.537 281.247 137.51 281.76C136.53 282.227 135.363 282.67 134.01 283.09C132.657 283.51 131.14 283.86 129.46 284.14C127.827 284.42 126.077 284.56 124.21 284.56C120.243 284.56 116.673 283.883 113.5 282.53C110.373 281.13 107.713 279.263 105.52 276.93C103.327 274.597 101.647 271.89 100.48 268.81C99.3133 265.73 98.73 262.463 98.73 259.01C98.73 255.183 99.4067 251.66 100.76 248.44C102.16 245.22 104.05 242.443 106.43 240.11C108.81 237.777 111.587 235.957 114.76 234.65C117.98 233.343 121.387 232.69 124.98 232.69C126.333 232.69 127.71 232.783 129.11 232.97C130.51 233.157 131.817 233.413 133.03 233.74C134.29 234.067 135.387 234.463 136.32 234.93C137.3 235.35 138.047 235.793 138.56 236.26C138.187 236.82 137.883 237.287 137.65 237.66C137.463 238.033 137.253 238.43 137.02 238.85C136.787 239.223 136.53 239.667 136.25 240.18C135.97 240.693 135.597 241.37 135.13 242.21C134.523 241.79 133.8 241.44 132.96 241.16C132.167 240.88 131.327 240.647 130.44 240.46C129.553 240.273 128.643 240.133 127.71 240.04C126.823 239.947 126.007 239.9 125.26 239.9C122.553 239.9 120.033 240.413 117.7 241.44C115.413 242.42 113.43 243.773 111.75 245.5C110.07 247.18 108.74 249.14 107.76 251.38C106.827 253.62 106.36 255.953 106.36 258.38C106.36 260.76 106.803 263.047 107.69 265.24C108.623 267.433 109.883 269.393 111.47 271.12C113.103 272.847 115.04 274.223 117.28 275.25C119.567 276.277 122.063 276.79 124.77 276.79C126.217 276.79 127.617 276.65 128.97 276.37C130.323 276.09 131.537 275.763 132.61 275.39C133.73 275.017 134.64 274.643 135.34 274.27C136.087 273.897 136.53 273.617 136.67 273.43L139.89 280.36ZM146.869 233.25H154.499V284H146.869V233.25ZM211.486 233.25V286.31C210.833 285.47 209.573 284.117 207.706 282.25C205.84 280.383 203.693 278.237 201.266 275.81C198.84 273.383 196.25 270.84 193.496 268.18C190.79 265.52 188.223 263 185.796 260.62C183.37 258.193 181.246 256.047 179.426 254.18C177.606 252.267 176.393 250.913 175.786 250.12L174.456 248.3L174.666 250.54V284H166.966V230.87C167.48 231.523 168.32 232.457 169.486 233.67C170.7 234.883 172.1 236.307 173.686 237.94C175.32 239.527 177.093 241.253 179.006 243.12C180.966 244.987 182.926 246.877 184.886 248.79C186.893 250.703 188.853 252.593 190.766 254.46C192.726 256.28 194.5 257.983 196.086 259.57C197.72 261.157 199.12 262.557 200.286 263.77C201.453 264.983 202.27 265.893 202.736 266.5L204.066 268.46L203.856 266.08V233.25H211.486ZM223.978 284V233.25H257.298V240.18H231.678V255.02H254.498V262.09H231.678V276.93H258.278V284H223.978ZM298.611 284C298.378 283.487 298.051 282.74 297.631 281.76C297.211 280.78 296.721 279.66 296.161 278.4C295.648 277.093 295.065 275.693 294.411 274.2C293.805 272.66 293.175 271.073 292.521 269.44H274.601L268.581 284H261.021L283.631 230.87C283.911 231.523 284.401 232.713 285.101 234.44C285.848 236.167 286.711 238.243 287.691 240.67C288.718 243.05 289.838 245.71 291.051 248.65C292.311 251.543 293.571 254.483 294.831 257.47C296.138 260.457 297.398 263.397 298.611 266.29C299.871 269.183 301.015 271.843 302.041 274.27C303.068 276.697 303.931 278.773 304.631 280.5C305.378 282.18 305.891 283.347 306.171 284H298.611ZM277.261 263H289.931C289.278 261.46 288.648 259.99 288.041 258.59C287.481 257.143 286.945 255.837 286.431 254.67C285.965 253.457 285.545 252.407 285.171 251.52C284.798 250.633 284.518 249.933 284.331 249.42C284.285 249.327 284.168 249 283.981 248.44C283.841 247.88 283.725 247.367 283.631 246.9C283.538 247.367 283.398 247.88 283.211 248.44C283.025 249 282.908 249.327 282.861 249.42L277.261 263ZM348.249 280.36C347.689 280.78 346.896 281.247 345.869 281.76C344.889 282.227 343.723 282.67 342.369 283.09C341.016 283.51 339.499 283.86 337.819 284.14C336.186 284.42 334.436 284.56 332.569 284.56C328.603 284.56 325.033 283.883 321.859 282.53C318.733 281.13 316.073 279.263 313.879 276.93C311.686 274.597 310.006 271.89 308.839 268.81C307.673 265.73 307.089 262.463 307.089 259.01C307.089 255.183 307.766 251.66 309.119 248.44C310.519 245.22 312.409 242.443 314.789 240.11C317.169 237.777 319.946 235.957 323.119 234.65C326.339 233.343 329.746 232.69 333.339 232.69C334.693 232.69 336.069 232.783 337.469 232.97C338.869 233.157 340.176 233.413 341.389 233.74C342.649 234.067 343.746 234.463 344.679 234.93C345.659 235.35 346.406 235.793 346.919 236.26C346.546 236.82 346.243 237.287 346.009 237.66C345.823 238.033 345.613 238.43 345.379 238.85C345.146 239.223 344.889 239.667 344.609 240.18C344.329 240.693 343.956 241.37 343.489 242.21C342.883 241.79 342.159 241.44 341.319 241.16C340.526 240.88 339.686 240.647 338.799 240.46C337.913 240.273 337.003 240.133 336.069 240.04C335.183 239.947 334.366 239.9 333.619 239.9C330.913 239.9 328.393 240.413 326.059 241.44C323.773 242.42 321.789 243.773 320.109 245.5C318.429 247.18 317.099 249.14 316.119 251.38C315.186 253.62 314.719 255.953 314.719 258.38C314.719 260.76 315.163 263.047 316.049 265.24C316.983 267.433 318.243 269.393 319.829 271.12C321.463 272.847 323.399 274.223 325.639 275.25C327.926 276.277 330.423 276.79 333.129 276.79C334.576 276.79 335.976 276.65 337.329 276.37C338.683 276.09 339.896 275.763 340.969 275.39C342.089 275.017 342.999 274.643 343.699 274.27C344.446 273.897 344.889 273.617 345.029 273.43L348.249 280.36ZM391.521 280.36C390.961 280.78 390.168 281.247 389.141 281.76C388.161 282.227 386.994 282.67 385.641 283.09C384.288 283.51 382.771 283.86 381.091 284.14C379.458 284.42 377.708 284.56 375.841 284.56C371.874 284.56 368.304 283.883 365.131 282.53C362.004 281.13 359.344 279.263 357.151 276.93C354.958 274.597 353.278 271.89 352.111 268.81C350.944 265.73 350.361 262.463 350.361 259.01C350.361 255.183 351.038 251.66 352.391 248.44C353.791 245.22 355.681 242.443 358.061 240.11C360.441 237.777 363.218 235.957 366.391 234.65C369.611 233.343 373.018 232.69 376.611 232.69C377.964 232.69 379.341 232.783 380.741 232.97C382.141 233.157 383.448 233.413 384.661 233.74C385.921 234.067 387.018 234.463 387.951 234.93C388.931 235.35 389.678 235.793 390.191 236.26C389.818 236.82 389.514 237.287 389.281 237.66C389.094 238.033 388.884 238.43 388.651 238.85C388.418 239.223 388.161 239.667 387.881 240.18C387.601 240.693 387.228 241.37 386.761 242.21C386.154 241.79 385.431 241.44 384.591 241.16C383.798 240.88 382.958 240.647 382.071 240.46C381.184 240.273 380.274 240.133 379.341 240.04C378.454 239.947 377.638 239.9 376.891 239.9C374.184 239.9 371.664 240.413 369.331 241.44C367.044 242.42 365.061 243.773 363.381 245.5C361.701 247.18 360.371 249.14 359.391 251.38C358.458 253.62 357.991 255.953 357.991 258.38C357.991 260.76 358.434 263.047 359.321 265.24C360.254 267.433 361.514 269.393 363.101 271.12C364.734 272.847 366.671 274.223 368.911 275.25C371.198 276.277 373.694 276.79 376.401 276.79C377.848 276.79 379.248 276.65 380.601 276.37C381.954 276.09 383.168 275.763 384.241 275.39C385.361 275.017 386.271 274.643 386.971 274.27C387.718 273.897 388.161 273.617 388.301 273.43L391.521 280.36ZM429.93 284C429.696 283.487 429.37 282.74 428.95 281.76C428.53 280.78 428.04 279.66 427.48 278.4C426.966 277.093 426.383 275.693 425.73 274.2C425.123 272.66 424.493 271.073 423.84 269.44H405.92L399.9 284H392.34L414.95 230.87C415.23 231.523 415.72 232.713 416.42 234.44C417.166 236.167 418.03 238.243 419.01 240.67C420.036 243.05 421.156 245.71 422.37 248.65C423.63 251.543 424.89 254.483 426.15 257.47C427.456 260.457 428.716 263.397 429.93 266.29C431.19 269.183 432.333 271.843 433.36 274.27C434.386 276.697 435.25 278.773 435.95 280.5C436.696 282.18 437.21 283.347 437.49 284H429.93ZM408.58 263H421.25C420.596 261.46 419.966 259.99 419.36 258.59C418.8 257.143 418.263 255.837 417.75 254.67C417.283 253.457 416.863 252.407 416.49 251.52C416.116 250.633 415.836 249.933 415.65 249.42C415.603 249.327 415.486 249 415.3 248.44C415.16 247.88 415.043 247.367 414.95 246.9C414.856 247.367 414.716 247.88 414.53 248.44C414.343 249 414.226 249.327 414.18 249.42L408.58 263Z" fill="white"/>
</svg>
