<svg width="190" height="90" viewBox="0 0 190 90" fill="none" xmlns="http://www.w3.org/2000/svg">
<rect width="190" height="90" fill="#52915A"/>
<path d="M13.8604 36V14.4082H17.9912V23.1826H25.2568V14.4082H29.3877V36H25.2568V26.918H17.9912V36H13.8604ZM33.1084 36V14.4082H44.2412V18.1436H37.2393V23.2412H43.1719V26.874H37.2393V32.2646H44.2412V36H33.1084ZM47.4053 36V14.4082H51.5361V32.2646H58.0986V36H47.4053ZM60.1494 36V14.4082H64.2803V32.2646H70.8428V36H60.1494ZM80.0859 36.2344C78.3086 36.2344 76.7559 35.7803 75.4277 34.8721C74.0996 33.9639 73.0693 32.6846 72.3369 31.0342C71.6143 29.374 71.2529 27.4258 71.2529 25.1895C71.2529 22.9629 71.6143 21.0244 72.3369 19.374C73.0693 17.7236 74.0996 16.4443 75.4277 15.5361C76.7559 14.6279 78.3086 14.1738 80.0859 14.1738C81.8828 14.1738 83.4453 14.6279 84.7734 15.5361C86.1016 16.4443 87.1318 17.7236 87.8643 19.374C88.5967 21.0244 88.9629 22.9629 88.9629 25.1895C88.9629 27.4258 88.5967 29.374 87.8643 31.0342C87.1318 32.6846 86.1016 33.9639 84.7734 34.8721C83.4453 35.7803 81.8828 36.2344 80.0859 36.2344ZM80.1006 32.4404C81.0674 32.4404 81.9023 32.1426 82.6055 31.5469C83.3184 30.9414 83.8652 30.0967 84.2461 29.0127C84.6367 27.9287 84.832 26.6543 84.832 25.1895C84.8223 23.7246 84.6221 22.4551 84.2314 21.3809C83.8408 20.2969 83.2891 19.457 82.5762 18.8613C81.873 18.2656 81.043 17.9678 80.0859 17.9678C79.1387 17.9678 78.3086 18.2656 77.5957 18.8613C76.8926 19.4473 76.3457 20.2822 75.9551 21.3662C75.5742 22.4404 75.3838 23.7148 75.3838 25.1895C75.3838 26.6641 75.5742 27.9434 75.9551 29.0273C76.3457 30.1113 76.8926 30.9512 77.5957 31.5469C78.3086 32.1426 79.1436 32.4404 80.1006 32.4404ZM13.8604 75V53.4082H17.9912V63.1201H19.002L17.6836 63.7939L23.9531 53.4082H28.8457L21.1846 65.2588V62.959L29.1094 75H24.3193L17.6836 64.7021L19.002 65.376H17.9912V75H13.8604ZM37.7227 75.2344C35.9453 75.2344 34.3926 74.7803 33.0645 73.8721C31.7363 72.9639 30.7061 71.6846 29.9736 70.0342C29.251 68.374 28.8896 66.4258 28.8896 64.1895C28.8896 61.9629 29.251 60.0244 29.9736 58.374C30.7061 56.7236 31.7363 55.4443 33.0645 54.5361C34.3926 53.6279 35.9453 53.1738 37.7227 53.1738C39.5195 53.1738 41.082 53.6279 42.4102 54.5361C43.7383 55.4443 44.7686 56.7236 45.501 58.374C46.2334 60.0244 46.5996 61.9629 46.5996 64.1895C46.5996 66.4258 46.2334 68.374 45.501 70.0342C44.7686 71.6846 43.7383 72.9639 42.4102 73.8721C41.082 74.7803 39.5195 75.2344 37.7227 75.2344ZM37.7373 71.4404C38.7041 71.4404 39.5391 71.1426 40.2422 70.5469C40.9551 69.9414 41.502 69.0967 41.8828 68.0127C42.2734 66.9287 42.4688 65.6543 42.4688 64.1895C42.459 62.7246 42.2588 61.4551 41.8682 60.3809C41.4775 59.2969 40.9258 58.457 40.2129 57.8613C39.5098 57.2656 38.6797 56.9678 37.7227 56.9678C36.7754 56.9678 35.9453 57.2656 35.2324 57.8613C34.5293 58.4473 33.9824 59.2822 33.5918 60.3662C33.2109 61.4404 33.0205 62.7148 33.0205 64.1895C33.0205 65.6641 33.2109 66.9434 33.5918 68.0273C33.9824 69.1113 34.5293 69.9512 35.2324 70.5469C35.9453 71.1426 36.7803 71.4404 37.7373 71.4404ZM52.1953 67.1484V63.6768H55.3887C56.248 63.6768 56.9463 63.3643 57.4834 62.7393C58.0205 62.1143 58.2891 61.2842 58.2891 60.249C58.2891 59.292 58.0254 58.5352 57.498 57.9785C56.9707 57.4219 56.2334 57.1436 55.2861 57.1436H52.1953V53.4082H55.9014C57.1318 53.4082 58.2354 53.6621 59.2119 54.1699C60.1982 54.6777 60.9746 55.4102 61.541 56.3672C62.1074 57.3242 62.3906 58.4814 62.3906 59.8389C62.3906 61.2256 62.083 62.4707 61.4678 63.5742C60.8525 64.6777 59.9785 65.5518 58.8457 66.1963C57.7129 66.8311 56.3701 67.1484 54.8174 67.1484H52.1953ZM49.2803 75V53.4082H53.4111V75H49.2803ZM59.2705 75L55.2422 66.5479L58.2012 64.0869L63.8115 75H59.2705ZM66.4482 75V53.4082H77.5811V57.1436H70.5791V62.2412H76.5117V65.874H70.5791V71.2646H77.5811V75H66.4482ZM79.0605 75L86.209 53.4082H90.208L97.3711 75H93.0645L91.292 69.1846L90.999 67.6172L88.2744 58.6523H88.1572L85.4326 67.6172L85.1396 69.1846L83.3672 75H79.0605ZM83.2354 70.2686V66.7676H93.167V70.2686H83.2354ZM107.508 67.8369L106.966 53.4082H111.346L110.804 67.8369H107.508ZM109.178 75.249C108.484 75.249 107.894 75.0049 107.405 74.5166C106.917 74.0283 106.673 73.4326 106.673 72.7295C106.673 72.0264 106.917 71.4307 107.405 70.9424C107.894 70.4541 108.484 70.21 109.178 70.21C109.891 70.21 110.486 70.4541 110.965 70.9424C111.453 71.4307 111.697 72.0264 111.697 72.7295C111.697 73.4326 111.453 74.0283 110.965 74.5166C110.486 75.0049 109.891 75.249 109.178 75.249Z" fill="white"/>
</svg>
