<svg width="100" height="39" viewBox="0 0 100 39" fill="none" xmlns="http://www.w3.org/2000/svg">
<g clip-path="url(#clip0_4502_7734)">
<path d="M65.1724 23.5581V27.7389H73.6099V30.6605H65.1724V35.2444H73.6099V38.216H61.9485V20.5856H73.6099V23.5581H65.1724ZM54.71 38.5941C57.6315 38.5941 60.2258 36.5287 60.2258 32.4236V20.5856H57.0777V32.4236C57.0777 34.8163 55.9942 35.6475 54.71 35.6475C53.4257 35.6475 52.3172 34.8163 52.3172 32.4236V20.5856H49.1691V32.4236C49.1691 36.5295 51.7126 38.5941 54.71 38.5941ZM43.6601 38.048C44.4999 37.8301 45.2553 37.5355 45.9271 37.1669C46.5989 36.7974 47.1364 36.3857 47.5386 35.9326L45.9271 33.3383C45.5576 33.7078 45.1459 34.0351 44.6928 34.3202C44.2561 34.589 43.7781 34.7991 43.257 34.9499C42.7368 35.1014 42.1993 35.1764 41.6446 35.1764C40.7885 35.1764 39.9995 35.042 39.2768 34.7733C38.5714 34.4882 37.959 34.0851 37.4379 33.564C36.9341 33.0438 36.5396 32.4219 36.2545 31.7001C35.9857 30.9783 35.8514 30.1721 35.8514 29.2824C35.8514 28.3926 35.9944 27.62 36.2795 26.9146C36.5645 26.1928 36.9513 25.5709 37.4379 25.0507C37.9418 24.5305 38.5292 24.1274 39.201 23.8414C39.8892 23.5563 40.6196 23.4133 41.3922 23.4133C41.9125 23.4133 42.4163 23.4978 42.903 23.6649C43.4069 23.8156 43.8849 24.0507 44.3388 24.3703C44.8091 24.6726 45.2621 25.0507 45.6988 25.5038L47.7893 23.2118C47.3362 22.6244 46.7738 22.1119 46.1019 21.6752C45.4301 21.2222 44.6911 20.869 43.8858 20.6175C43.0796 20.366 42.2484 20.2394 41.3922 20.2394C40.133 20.2394 38.9659 20.4659 37.891 20.9198C36.8161 21.3729 35.8764 22.0111 35.0702 22.8337C34.264 23.6562 33.6343 24.614 33.1813 25.7053C32.7282 26.7966 32.5017 27.9809 32.5017 29.2565C32.5017 30.5321 32.7119 31.8086 33.1313 32.9335C33.568 34.042 34.1727 35.0076 34.9444 35.8301C35.717 36.6363 36.6317 37.2573 37.6894 37.694C38.7471 38.1307 39.9142 38.3486 41.1907 38.3486C42.0133 38.3486 42.8358 38.2478 43.6592 38.0463L43.6601 38.048ZM99.9998 3.40233V0.430775H88.3376V18.0611H99.9998V15.0896H91.5615V10.5056H99.9998V7.58403H91.5615V3.40233H99.9998ZM82.012 17.6417C82.9862 17.2558 83.8337 16.7183 84.5564 16.0301C85.2954 15.3419 85.8664 14.5271 86.2687 13.5874C86.6718 12.6305 86.8733 11.5728 86.8733 10.4135C86.8733 10.2627 86.8647 10.0862 86.8483 9.88461C86.8483 9.6667 86.8397 9.44792 86.8234 9.23001C86.8061 8.99487 86.7812 8.78471 86.7476 8.60038H78.7631V11.522H83.9767L83.5237 10.9931V11.547C83.5237 12.0508 83.4065 12.5211 83.1714 12.9578C82.9535 13.3945 82.6339 13.7804 82.2145 14.1163C81.795 14.435 81.3161 14.6873 80.7786 14.8716C80.2412 15.056 79.6624 15.149 79.0405 15.149C78.2179 15.149 77.4367 14.9983 76.6977 14.6959C75.9759 14.3773 75.3377 13.9406 74.7839 13.3859C74.23 12.832 73.7933 12.1852 73.4738 11.4462C73.1715 10.7072 73.0207 9.92682 73.0207 9.1034C73.0207 8.27997 73.1723 7.45828 73.4738 6.73563C73.7761 6.01384 74.187 5.38422 74.7081 4.84676C75.2455 4.30929 75.8665 3.88983 76.572 3.58751C77.2937 3.28519 78.075 3.13445 78.9139 3.13445C79.4849 3.13445 80.0388 3.218 80.5762 3.38596C81.1137 3.55392 81.6253 3.78906 82.1128 4.09138C82.6167 4.3937 83.1033 4.77182 83.5736 5.22488L85.6391 3.05866C85.186 2.4876 84.615 1.97598 83.9259 1.52207C83.2377 1.06901 82.4651 0.715871 81.6089 0.464366C80.7528 0.212861 79.8631 0.0862471 78.9389 0.0862471C77.6288 0.0862471 76.4031 0.312774 75.2619 0.766689C74.137 1.21974 73.1542 1.85798 72.3153 2.68054C71.4755 3.48673 70.8209 4.44366 70.3506 5.55218C69.8976 6.64347 69.6702 7.82778 69.6702 9.1034C69.6702 10.379 69.8967 11.5969 70.3506 12.7054C70.8037 13.7967 71.4419 14.7536 72.2645 15.5771C73.1043 16.3996 74.0862 17.0465 75.2111 17.5168C76.336 17.9698 77.5616 18.1972 78.888 18.1972C80.0129 18.1972 81.0543 18.0129 82.0112 17.6434L82.012 17.6417ZM62.6901 0.0862471C59.6927 0.0862471 57.1492 2.12671 57.1492 6.23176V18.0947H69.8433V15.2231H68.206V6.2309C68.206 2.12585 65.6117 0.0853858 62.6901 0.0853858V0.0862471ZM62.8623 3.00784C64.1466 3.00784 65.2301 3.86399 65.2301 6.23176V15.2239H60.4696V6.23176C60.4696 3.86399 61.5523 3.00784 62.8623 3.00784ZM44.8444 3.35237H49.1768V18.0611H52.325V3.35237H56.6316V0.430775H44.8444V3.35237ZM44.2415 13.2989C44.2415 8.16111 36.7859 7.50565 36.7859 4.68483C36.7859 3.62713 37.5921 2.99751 38.6248 2.99751C39.8083 2.99751 40.6903 3.70293 40.9676 5.28947L43.9142 4.40835C43.3853 1.71328 41.5214 0.000976562 38.524 0.000976562C35.779 0.000976562 33.6128 1.71328 33.6128 4.60989C33.6128 9.54611 41.0684 10.3024 41.0684 13.3247C41.0684 14.6847 40.0107 15.466 38.7764 15.466C37.3156 15.466 36.2579 14.509 35.9556 12.8467L32.9332 13.7537C33.5629 16.4987 35.6033 18.4384 38.8522 18.4384C41.8496 18.4384 44.2423 16.5245 44.2423 13.3006L44.2415 13.2989Z" fill="black"/>
<path d="M23.6527 32.435V13.1708C23.6527 4.37326 18.1049 0.00292969 11.8543 0.00292969C5.60374 0.00292969 0 4.37326 0 13.1708V38.59H27.1927V32.4368L23.6527 32.435ZM6.73465 29.3472C12.7863 22.9803 13.0223 11.9951 12.502 4.40082L15.173 32.435L6.73465 29.3472Z" fill="url(#paint0_linear_4502_7734)"/>
</g>
<defs>
<linearGradient id="paint0_linear_4502_7734" x1="-2.20842" y1="3.2992" x2="24.9851" y2="42.1352" gradientUnits="userSpaceOnUse">
<stop stop-color="#750012"/>
<stop offset="0.25" stop-color="#B81716"/>
<stop offset="0.48" stop-color="#EB1F20"/>
<stop offset="0.72" stop-color="#ED5700"/>
<stop offset="0.909497" stop-color="#FF9202"/>
</linearGradient>
<clipPath id="clip0_4502_7734">
<rect width="100" height="38.594" fill="white"/>
</clipPath>
</defs>
</svg>
