<svg width="190" height="90" viewBox="0 0 190 90" fill="none" xmlns="http://www.w3.org/2000/svg">
<rect width="190" height="90" fill="#374151"/>
<path d="M35.11 44.35C34.77 44.57 34.28 44.84 33.64 45.16C33.02 45.46 32.28 45.72 31.42 45.94C30.58 46.16 29.66 46.26 28.66 46.24C26.96 46.22 25.44 45.92 24.1 45.34C22.76 44.76 21.61 43.97 20.65 42.97C19.71 41.95 18.99 40.79 18.49 39.49C17.99 38.17 17.74 36.77 17.74 35.29C17.74 33.65 18 32.15 18.52 30.79C19.06 29.41 19.81 28.22 20.77 27.22C21.73 26.2 22.86 25.41 24.16 24.85C25.48 24.29 26.92 24.01 28.48 24.01C29.8 24.01 31 24.19 32.08 24.55C33.16 24.91 34.07 25.32 34.81 25.78L33.55 28.72C32.97 28.32 32.25 27.94 31.39 27.58C30.55 27.22 29.61 27.04 28.57 27.04C27.21 27.04 25.95 27.4 24.79 28.12C23.65 28.84 22.73 29.81 22.03 31.03C21.35 32.25 21.01 33.62 21.01 35.14C21.01 36.68 21.32 38.06 21.94 39.28C22.58 40.5 23.48 41.46 24.64 42.16C25.8 42.86 27.16 43.21 28.72 43.21C29.84 43.21 30.82 43.04 31.66 42.7C32.52 42.36 33.22 41.97 33.76 41.53L35.11 44.35ZM39.9201 24.25H43.0401V46H39.9201V24.25ZM68.1372 46.75L51.3672 30.01L52.2972 30.31L52.3572 46H49.2072V23.56H49.3272L65.8872 40.3L65.1672 40.12L65.1072 24.25H68.2272V46.75H68.1372ZM74.4025 24.25H88.6525V27.28H77.5225V33.55H87.4525V36.58H77.5225V42.97H89.0725V46H74.4025V24.25ZM91.8107 46L101.381 23.35H101.561L111.131 46H107.501L100.541 28.27L102.791 26.8L94.9307 46H91.8107ZM97.6007 37.84H105.401L106.481 40.54H96.6707L97.6007 37.84ZM129.856 44.35C129.516 44.57 129.026 44.84 128.386 45.16C127.766 45.46 127.026 45.72 126.166 45.94C125.326 46.16 124.406 46.26 123.406 46.24C121.706 46.22 120.186 45.92 118.846 45.34C117.506 44.76 116.356 43.97 115.396 42.97C114.456 41.95 113.736 40.79 113.236 39.49C112.736 38.17 112.486 36.77 112.486 35.29C112.486 33.65 112.746 32.15 113.266 30.79C113.806 29.41 114.556 28.22 115.516 27.22C116.476 26.2 117.606 25.41 118.906 24.85C120.226 24.29 121.666 24.01 123.226 24.01C124.546 24.01 125.746 24.19 126.826 24.55C127.906 24.91 128.816 25.32 129.556 25.78L128.296 28.72C127.716 28.32 126.996 27.94 126.136 27.58C125.296 27.22 124.356 27.04 123.316 27.04C121.956 27.04 120.696 27.4 119.536 28.12C118.396 28.84 117.476 29.81 116.776 31.03C116.096 32.25 115.756 33.62 115.756 35.14C115.756 36.68 116.066 38.06 116.686 39.28C117.326 40.5 118.226 41.46 119.386 42.16C120.546 42.86 121.906 43.21 123.466 43.21C124.586 43.21 125.566 43.04 126.406 42.7C127.266 42.36 127.966 41.97 128.506 41.53L129.856 44.35ZM150.686 44.35C150.346 44.57 149.856 44.84 149.216 45.16C148.596 45.46 147.856 45.72 146.996 45.94C146.156 46.16 145.236 46.26 144.236 46.24C142.536 46.22 141.016 45.92 139.676 45.34C138.336 44.76 137.186 43.97 136.226 42.97C135.286 41.95 134.566 40.79 134.066 39.49C133.566 38.17 133.316 36.77 133.316 35.29C133.316 33.65 133.576 32.15 134.096 30.79C134.636 29.41 135.386 28.22 136.346 27.22C137.306 26.2 138.436 25.41 139.736 24.85C141.056 24.29 142.496 24.01 144.056 24.01C145.376 24.01 146.576 24.19 147.656 24.55C148.736 24.91 149.646 25.32 150.386 25.78L149.126 28.72C148.546 28.32 147.826 27.94 146.966 27.58C146.126 27.22 145.186 27.04 144.146 27.04C142.786 27.04 141.526 27.4 140.366 28.12C139.226 28.84 138.306 29.81 137.606 31.03C136.926 32.25 136.586 33.62 136.586 35.14C136.586 36.68 136.896 38.06 137.516 39.28C138.156 40.5 139.056 41.46 140.216 42.16C141.376 42.86 142.736 43.21 144.296 43.21C145.416 43.21 146.396 43.04 147.236 42.7C148.096 42.36 148.796 41.97 149.336 41.53L150.686 44.35ZM153.246 46L162.816 23.35H162.996L172.566 46H168.936L161.976 28.27L164.226 26.8L156.366 46H153.246ZM159.036 37.84H166.836L167.916 40.54H158.106L159.036 37.84Z" fill="white"/>
<path d="M9.711 64.238H10.62V68H9.711V64.238ZM9.666 62.888C9.666 62.75 9.72 62.633 9.828 62.537C9.942 62.441 10.065 62.393 10.197 62.393C10.329 62.393 10.449 62.441 10.557 62.537C10.665 62.633 10.719 62.75 10.719 62.888C10.719 63.038 10.665 63.158 10.557 63.248C10.449 63.338 10.329 63.383 10.197 63.383C10.065 63.383 9.942 63.338 9.828 63.248C9.72 63.158 9.666 63.038 9.666 62.888ZM12.0401 61.007H12.9491V68H12.0401V61.007ZM17.7881 68.09C17.5121 68.09 17.2451 68.03 16.9871 67.91C16.7351 67.784 16.5371 67.613 16.3931 67.397L16.4471 67.118V69.809H15.5381V64.175H16.3211L16.4471 65.102L16.3571 64.841C16.5371 64.619 16.7621 64.439 17.0321 64.301C17.3081 64.157 17.6171 64.085 17.9591 64.085C18.3131 64.085 18.6311 64.169 18.9131 64.337C19.1951 64.505 19.4171 64.742 19.5791 65.048C19.7411 65.348 19.8221 65.702 19.8221 66.11C19.8221 66.518 19.7321 66.872 19.5521 67.172C19.3781 67.466 19.1381 67.694 18.8321 67.856C18.5261 68.012 18.1781 68.09 17.7881 68.09ZM17.6081 67.37C17.8421 67.37 18.0551 67.316 18.2471 67.208C18.4451 67.1 18.6011 66.953 18.7151 66.767C18.8351 66.575 18.8951 66.359 18.8951 66.119C18.8951 65.873 18.8411 65.654 18.7331 65.462C18.6251 65.27 18.4781 65.12 18.2921 65.012C18.1061 64.904 17.8991 64.85 17.6711 64.85C17.3591 64.85 17.0951 64.934 16.8791 65.102C16.6691 65.27 16.5251 65.492 16.4471 65.768V66.443C16.4951 66.713 16.6271 66.935 16.8431 67.109C17.0591 67.283 17.3141 67.37 17.6081 67.37ZM22.4921 68.09C22.1381 68.09 21.8171 68.015 21.5291 67.865C21.2411 67.715 21.0131 67.496 20.8451 67.208C20.6771 66.914 20.5931 66.551 20.5931 66.119C20.5931 65.699 20.6801 65.339 20.8541 65.039C21.0341 64.733 21.2681 64.499 21.5561 64.337C21.8501 64.169 22.1681 64.085 22.5101 64.085C22.8701 64.085 23.1671 64.16 23.4011 64.31C23.6351 64.46 23.8151 64.64 23.9411 64.85L23.8871 64.994L23.9771 64.238H24.8141V68H23.9051V67.046L23.9951 67.271C23.9711 67.319 23.9201 67.388 23.8421 67.478C23.7641 67.568 23.6621 67.661 23.5361 67.757C23.4101 67.847 23.2571 67.925 23.0771 67.991C22.9031 68.057 22.7081 68.09 22.4921 68.09ZM22.7351 67.343C23.0351 67.343 23.2871 67.265 23.4911 67.109C23.7011 66.947 23.8391 66.728 23.9051 66.452V65.678C23.8331 65.432 23.6861 65.228 23.4641 65.066C23.2481 64.904 22.9961 64.823 22.7081 64.823C22.4921 64.823 22.2941 64.877 22.1141 64.985C21.9341 65.087 21.7901 65.234 21.6821 65.426C21.5741 65.612 21.5201 65.828 21.5201 66.074C21.5201 66.314 21.5741 66.53 21.6821 66.722C21.7961 66.914 21.9461 67.067 22.1321 67.181C22.3181 67.289 22.5191 67.343 22.7351 67.343ZM27.0444 64.238L27.1344 65.318L27.0984 65.174C27.2004 64.946 27.3414 64.751 27.5214 64.589C27.7074 64.427 27.8994 64.304 28.0974 64.22C28.3014 64.13 28.4724 64.085 28.6104 64.085L28.5654 64.985C28.2834 64.967 28.0344 65.021 27.8184 65.147C27.6084 65.273 27.4434 65.441 27.3234 65.651C27.2034 65.861 27.1434 66.086 27.1434 66.326V68H26.2344V64.238H27.0444ZM31.1405 68.09C30.7865 68.09 30.4655 68.015 30.1775 67.865C29.8895 67.715 29.6615 67.496 29.4935 67.208C29.3255 66.914 29.2415 66.551 29.2415 66.119C29.2415 65.699 29.3285 65.339 29.5025 65.039C29.6825 64.733 29.9165 64.499 30.2045 64.337C30.4985 64.169 30.8165 64.085 31.1585 64.085C31.5185 64.085 31.8155 64.16 32.0495 64.31C32.2835 64.46 32.4635 64.64 32.5895 64.85L32.5355 64.994L32.6255 64.238H33.4625V68H32.5535V67.046L32.6435 67.271C32.6195 67.319 32.5685 67.388 32.4905 67.478C32.4125 67.568 32.3105 67.661 32.1845 67.757C32.0585 67.847 31.9055 67.925 31.7255 67.991C31.5515 68.057 31.3565 68.09 31.1405 68.09ZM31.3835 67.343C31.6835 67.343 31.9355 67.265 32.1395 67.109C32.3495 66.947 32.4875 66.728 32.5535 66.452V65.678C32.4815 65.432 32.3345 65.228 32.1125 65.066C31.8965 64.904 31.6445 64.823 31.3565 64.823C31.1405 64.823 30.9425 64.877 30.7625 64.985C30.5825 65.087 30.4385 65.234 30.3305 65.426C30.2225 65.612 30.1685 65.828 30.1685 66.074C30.1685 66.314 30.2225 66.53 30.3305 66.722C30.4445 66.914 30.5945 67.067 30.7805 67.181C30.9665 67.289 31.1675 67.343 31.3835 67.343ZM36.4219 68.09C36.0679 68.09 35.7499 68.009 35.4679 67.847C35.1859 67.679 34.9639 67.442 34.8019 67.136C34.6399 66.83 34.5589 66.473 34.5589 66.065C34.5589 65.645 34.6459 65.288 34.8199 64.994C34.9939 64.7 35.2279 64.475 35.5219 64.319C35.8219 64.163 36.1579 64.085 36.5299 64.085C36.8179 64.085 37.0909 64.145 37.3489 64.265C37.6129 64.379 37.8199 64.541 37.9699 64.751L37.9339 65.066V61.007H38.8429V68H37.9249V67.1L38.0239 67.343C37.8439 67.559 37.6159 67.739 37.3399 67.883C37.0699 68.021 36.7639 68.09 36.4219 68.09ZM36.7009 67.325C37.0189 67.325 37.2829 67.244 37.4929 67.082C37.7089 66.914 37.8529 66.692 37.9249 66.416V65.669C37.8589 65.417 37.7119 65.21 37.4839 65.048C37.2619 64.886 37.0009 64.805 36.7009 64.805C36.4849 64.805 36.2839 64.859 36.0979 64.967C35.9119 65.069 35.7619 65.216 35.6479 65.408C35.5399 65.594 35.4859 65.81 35.4859 66.056C35.4859 66.29 35.5399 66.503 35.6479 66.695C35.7619 66.887 35.9119 67.04 36.0979 67.154C36.2839 67.268 36.4849 67.325 36.7009 67.325ZM40.2618 64.238H41.1708V68H40.2618V64.238ZM40.2168 62.888C40.2168 62.75 40.2708 62.633 40.3788 62.537C40.4928 62.441 40.6158 62.393 40.7478 62.393C40.8798 62.393 40.9998 62.441 41.1078 62.537C41.2158 62.633 41.2698 62.75 41.2698 62.888C41.2698 63.038 41.2158 63.158 41.1078 63.248C40.9998 63.338 40.8798 63.383 40.7478 63.383C40.6158 63.383 40.4928 63.338 40.3788 63.248C40.2708 63.158 40.2168 63.038 40.2168 62.888ZM43.6799 68.081C43.4039 68.081 43.1399 68.033 42.8879 67.937C42.6359 67.835 42.4229 67.691 42.2489 67.505L42.6359 66.983C42.7919 67.133 42.9539 67.247 43.1219 67.325C43.2959 67.403 43.4579 67.442 43.6079 67.442C43.7819 67.442 43.9349 67.409 44.0669 67.343C44.1989 67.271 44.2649 67.154 44.2649 66.992C44.2649 66.86 44.2199 66.758 44.1299 66.686C44.0459 66.614 43.9379 66.554 43.8059 66.506C43.6739 66.458 43.5329 66.413 43.3829 66.371C43.0709 66.269 42.8309 66.125 42.6629 65.939C42.5009 65.747 42.4199 65.522 42.4199 65.264C42.4199 65.066 42.4679 64.88 42.5639 64.706C42.6659 64.526 42.8189 64.382 43.0229 64.274C43.2269 64.16 43.4789 64.103 43.7789 64.103C44.0429 64.103 44.2799 64.136 44.4899 64.202C44.6999 64.262 44.8949 64.367 45.0749 64.517L44.7239 65.066C44.6159 64.958 44.4869 64.877 44.3369 64.823C44.1929 64.763 44.0609 64.73 43.9409 64.724C43.7789 64.724 43.6379 64.763 43.5179 64.841C43.3979 64.913 43.3379 65.012 43.3379 65.138C43.3379 65.264 43.3799 65.366 43.4639 65.444C43.5479 65.516 43.6559 65.576 43.7879 65.624C43.9259 65.666 44.0639 65.711 44.2019 65.759C44.4779 65.849 44.7059 65.972 44.8859 66.128C45.0719 66.284 45.1649 66.512 45.1649 66.812C45.1649 67.04 45.1109 67.25 45.0029 67.442C44.8949 67.634 44.7299 67.79 44.5079 67.91C44.2919 68.024 44.0159 68.081 43.6799 68.081ZM45.9934 66.083C45.9934 65.705 46.0834 65.366 46.2634 65.066C46.4434 64.76 46.6924 64.52 47.0104 64.346C47.3284 64.172 47.6914 64.085 48.0994 64.085C48.5134 64.085 48.8734 64.172 49.1794 64.346C49.4914 64.52 49.7314 64.76 49.8994 65.066C50.0734 65.366 50.1604 65.705 50.1604 66.083C50.1604 66.461 50.0734 66.803 49.8994 67.109C49.7254 67.409 49.4824 67.649 49.1704 67.829C48.8644 68.003 48.5014 68.09 48.0814 68.09C47.6854 68.09 47.3284 68.009 47.0104 67.847C46.6984 67.685 46.4494 67.454 46.2634 67.154C46.0834 66.848 45.9934 66.491 45.9934 66.083ZM46.9114 66.092C46.9114 66.326 46.9624 66.539 47.0644 66.731C47.1664 66.917 47.3044 67.067 47.4784 67.181C47.6584 67.289 47.8564 67.343 48.0724 67.343C48.4144 67.343 48.6934 67.223 48.9094 66.983C49.1314 66.743 49.2424 66.446 49.2424 66.092C49.2424 65.738 49.1314 65.441 48.9094 65.201C48.6934 64.955 48.4144 64.832 48.0724 64.832C47.8504 64.832 47.6524 64.889 47.4784 65.003C47.3044 65.117 47.1664 65.27 47.0644 65.462C46.9624 65.654 46.9114 65.864 46.9114 66.092ZM53.9648 68.09C53.6108 68.09 53.2928 68.009 53.0108 67.847C52.7288 67.679 52.5068 67.442 52.3448 67.136C52.1828 66.83 52.1018 66.473 52.1018 66.065C52.1018 65.645 52.1888 65.288 52.3628 64.994C52.5368 64.7 52.7708 64.475 53.0648 64.319C53.3648 64.163 53.7008 64.085 54.0728 64.085C54.3608 64.085 54.6338 64.145 54.8918 64.265C55.1558 64.379 55.3628 64.541 55.5128 64.751L55.4768 65.066V61.007H56.3858V68H55.4678V67.1L55.5668 67.343C55.3868 67.559 55.1588 67.739 54.8828 67.883C54.6128 68.021 54.3068 68.09 53.9648 68.09ZM54.2438 67.325C54.5618 67.325 54.8258 67.244 55.0358 67.082C55.2518 66.914 55.3958 66.692 55.4678 66.416V65.669C55.4018 65.417 55.2548 65.21 55.0268 65.048C54.8048 64.886 54.5438 64.805 54.2438 64.805C54.0278 64.805 53.8268 64.859 53.6408 64.967C53.4548 65.069 53.3048 65.216 53.1908 65.408C53.0828 65.594 53.0288 65.81 53.0288 66.056C53.0288 66.29 53.0828 66.503 53.1908 66.695C53.3048 66.887 53.4548 67.04 53.6408 67.154C53.8268 67.268 54.0278 67.325 54.2438 67.325ZM59.5688 68.09C59.1368 68.09 58.7648 68.006 58.4528 67.838C58.1408 67.664 57.9008 67.427 57.7328 67.127C57.5648 66.821 57.4808 66.476 57.4808 66.092C57.4808 65.72 57.5738 65.384 57.7598 65.084C57.9518 64.778 58.2068 64.535 58.5248 64.355C58.8428 64.175 59.1968 64.085 59.5868 64.085C60.0908 64.085 60.5078 64.232 60.8378 64.526C61.1738 64.814 61.3988 65.222 61.5128 65.75L58.4438 66.812L58.2278 66.29L60.6938 65.39L60.5048 65.516C60.4328 65.324 60.3188 65.159 60.1628 65.021C60.0068 64.877 59.7938 64.805 59.5238 64.805C59.1878 64.805 58.9118 64.922 58.6958 65.156C58.4858 65.384 58.3808 65.678 58.3808 66.038C58.3808 66.422 58.4948 66.731 58.7228 66.965C58.9508 67.199 59.2388 67.316 59.5868 67.316C59.7488 67.316 59.9048 67.289 60.0548 67.235C60.2048 67.175 60.3458 67.097 60.4778 67.001L60.8918 67.676C60.6998 67.802 60.4868 67.904 60.2528 67.982C60.0248 68.054 59.7968 68.09 59.5688 68.09ZM62.5333 61.007H63.4423V68H62.5333V61.007ZM69.1093 67.649C68.9413 67.787 68.7373 67.895 68.4973 67.973C68.2633 68.051 68.0263 68.09 67.7863 68.09C67.3783 68.09 67.0153 68.009 66.6973 67.847C66.3853 67.685 66.1423 67.457 65.9683 67.163C65.7943 66.869 65.7073 66.521 65.7073 66.119C65.7073 65.711 65.8003 65.36 65.9863 65.066C66.1723 64.772 66.4153 64.547 66.7153 64.391C67.0213 64.229 67.3483 64.148 67.6963 64.148C68.0083 64.148 68.2813 64.19 68.5153 64.274C68.7553 64.358 68.9623 64.475 69.1363 64.625L68.6863 65.21C68.5843 65.126 68.4553 65.051 68.2993 64.985C68.1433 64.919 67.9693 64.886 67.7773 64.886C67.5613 64.886 67.3633 64.94 67.1833 65.048C67.0093 65.156 66.8713 65.303 66.7693 65.489C66.6673 65.675 66.6163 65.885 66.6163 66.119C66.6163 66.347 66.6673 66.554 66.7693 66.74C66.8773 66.926 67.0243 67.073 67.2103 67.181C67.4023 67.289 67.6183 67.343 67.8583 67.343C68.0143 67.343 68.1583 67.319 68.2903 67.271C68.4283 67.223 68.5483 67.16 68.6503 67.082L69.1093 67.649ZM70.171 64.238H71.08V68H70.171V64.238ZM70.126 62.888C70.126 62.75 70.18 62.633 70.288 62.537C70.402 62.441 70.525 62.393 70.657 62.393C70.789 62.393 70.909 62.441 71.017 62.537C71.125 62.633 71.179 62.75 71.179 62.888C71.179 63.038 71.125 63.158 71.017 63.248C70.909 63.338 70.789 63.383 70.657 63.383C70.525 63.383 70.402 63.338 70.288 63.248C70.18 63.158 70.126 63.038 70.126 62.888ZM73.3191 64.238L73.4001 65.111L73.3641 64.985C73.4841 64.715 73.6761 64.499 73.9401 64.337C74.2101 64.175 74.5251 64.094 74.8851 64.094C75.2391 64.094 75.5301 64.199 75.7581 64.409C75.9861 64.613 76.1031 64.883 76.1091 65.219V68H75.2001V65.534C75.1941 65.342 75.1371 65.186 75.0291 65.066C74.9211 64.94 74.7531 64.874 74.5251 64.868C74.2071 64.868 73.9401 65 73.7241 65.264C73.5141 65.528 73.4091 65.867 73.4091 66.281V68H72.5001V64.238H73.3191ZM79.3002 68.09C78.8682 68.09 78.4962 68.006 78.1842 67.838C77.8722 67.664 77.6322 67.427 77.4642 67.127C77.2962 66.821 77.2122 66.476 77.2122 66.092C77.2122 65.72 77.3052 65.384 77.4912 65.084C77.6832 64.778 77.9382 64.535 78.2562 64.355C78.5742 64.175 78.9282 64.085 79.3182 64.085C79.8222 64.085 80.2392 64.232 80.5692 64.526C80.9052 64.814 81.1302 65.222 81.2442 65.75L78.1752 66.812L77.9592 66.29L80.4252 65.39L80.2362 65.516C80.1642 65.324 80.0502 65.159 79.8942 65.021C79.7382 64.877 79.5252 64.805 79.2552 64.805C78.9192 64.805 78.6432 64.922 78.4272 65.156C78.2172 65.384 78.1122 65.678 78.1122 66.038C78.1122 66.422 78.2262 66.731 78.4542 66.965C78.6822 67.199 78.9702 67.316 79.3182 67.316C79.4802 67.316 79.6362 67.289 79.7862 67.235C79.9362 67.175 80.0772 67.097 80.2092 67.001L80.6232 67.676C80.4312 67.802 80.2182 67.904 79.9842 67.982C79.7562 68.054 79.5282 68.09 79.3002 68.09ZM83.0837 64.238L83.1647 65.057L83.1197 64.985C83.2577 64.703 83.4527 64.484 83.7047 64.328C83.9627 64.166 84.2567 64.085 84.5867 64.085C84.8987 64.085 85.1597 64.157 85.3697 64.301C85.5797 64.445 85.7087 64.649 85.7567 64.913L85.7117 64.949C85.8617 64.679 86.0627 64.469 86.3147 64.319C86.5667 64.163 86.8307 64.085 87.1067 64.085C87.4787 64.085 87.7727 64.19 87.9887 64.4C88.2047 64.604 88.3157 64.874 88.3217 65.21V68H87.4217V65.552C87.4157 65.36 87.3707 65.201 87.2867 65.075C87.2087 64.949 87.0647 64.88 86.8547 64.868C86.6387 64.868 86.4467 64.934 86.2787 65.066C86.1167 65.198 85.9877 65.369 85.8917 65.579C85.8017 65.789 85.7537 66.014 85.7477 66.254V68H84.8387V65.552C84.8327 65.36 84.7847 65.201 84.6947 65.075C84.6107 64.949 84.4637 64.88 84.2537 64.868C84.0437 64.868 83.8547 64.934 83.6867 65.066C83.5247 65.198 83.3987 65.372 83.3087 65.588C83.2187 65.798 83.1737 66.023 83.1737 66.263V68H82.2647V64.238H83.0837ZM91.3192 68.09C90.9652 68.09 90.6442 68.015 90.3562 67.865C90.0682 67.715 89.8402 67.496 89.6722 67.208C89.5042 66.914 89.4202 66.551 89.4202 66.119C89.4202 65.699 89.5072 65.339 89.6812 65.039C89.8612 64.733 90.0952 64.499 90.3832 64.337C90.6772 64.169 90.9952 64.085 91.3372 64.085C91.6972 64.085 91.9942 64.16 92.2282 64.31C92.4622 64.46 92.6422 64.64 92.7682 64.85L92.7142 64.994L92.8042 64.238H93.6412V68H92.7322V67.046L92.8222 67.271C92.7982 67.319 92.7472 67.388 92.6692 67.478C92.5912 67.568 92.4892 67.661 92.3632 67.757C92.2372 67.847 92.0842 67.925 91.9042 67.991C91.7302 68.057 91.5352 68.09 91.3192 68.09ZM91.5622 67.343C91.8622 67.343 92.1142 67.265 92.3182 67.109C92.5282 66.947 92.6662 66.728 92.7322 66.452V65.678C92.6602 65.432 92.5132 65.228 92.2912 65.066C92.0752 64.904 91.8232 64.823 91.5352 64.823C91.3192 64.823 91.1212 64.877 90.9412 64.985C90.7612 65.087 90.6172 65.234 90.5092 65.426C90.4012 65.612 90.3472 65.828 90.3472 66.074C90.3472 66.314 90.4012 66.53 90.5092 66.722C90.6232 66.914 90.7732 67.067 90.9592 67.181C91.1452 67.289 91.3462 67.343 91.5622 67.343ZM95.4216 62.591H96.3396V64.247H97.3476V64.958H96.3396V68H95.4216V64.958H94.7556V64.247H95.4216V62.591ZM98.0247 66.083C98.0247 65.705 98.1147 65.366 98.2947 65.066C98.4747 64.76 98.7237 64.52 99.0417 64.346C99.3597 64.172 99.7227 64.085 100.131 64.085C100.545 64.085 100.905 64.172 101.211 64.346C101.523 64.52 101.763 64.76 101.931 65.066C102.105 65.366 102.192 65.705 102.192 66.083C102.192 66.461 102.105 66.803 101.931 67.109C101.757 67.409 101.514 67.649 101.202 67.829C100.896 68.003 100.533 68.09 100.113 68.09C99.7167 68.09 99.3597 68.009 99.0417 67.847C98.7297 67.685 98.4807 67.454 98.2947 67.154C98.1147 66.848 98.0247 66.491 98.0247 66.083ZM98.9427 66.092C98.9427 66.326 98.9937 66.539 99.0957 66.731C99.1977 66.917 99.3357 67.067 99.5097 67.181C99.6897 67.289 99.8877 67.343 100.104 67.343C100.446 67.343 100.725 67.223 100.941 66.983C101.163 66.743 101.274 66.446 101.274 66.092C101.274 65.738 101.163 65.441 100.941 65.201C100.725 64.955 100.446 64.832 100.104 64.832C99.8817 64.832 99.6837 64.889 99.5097 65.003C99.3357 65.117 99.1977 65.27 99.0957 65.462C98.9937 65.654 98.9427 65.864 98.9427 66.092ZM105.124 69.872C104.836 69.872 104.584 69.836 104.368 69.764C104.152 69.698 103.957 69.608 103.783 69.494C103.615 69.38 103.453 69.254 103.297 69.116L103.837 68.495C104.023 68.675 104.215 68.816 104.413 68.918C104.617 69.02 104.848 69.071 105.106 69.071C105.514 69.071 105.829 68.975 106.051 68.783C106.273 68.591 106.387 68.333 106.393 68.009V67.028L106.456 67.199C106.348 67.451 106.156 67.664 105.88 67.838C105.61 68.006 105.274 68.09 104.872 68.09C104.524 68.09 104.206 68.003 103.918 67.829C103.63 67.655 103.399 67.418 103.225 67.118C103.051 66.818 102.964 66.479 102.964 66.101C102.964 65.711 103.054 65.366 103.234 65.066C103.42 64.76 103.663 64.52 103.963 64.346C104.263 64.172 104.584 64.085 104.926 64.085C105.262 64.085 105.562 64.148 105.826 64.274C106.096 64.4 106.294 64.562 106.42 64.76L106.375 64.913L106.465 64.238H107.302V68.027C107.302 68.369 107.212 68.678 107.032 68.954C106.852 69.236 106.6 69.458 106.276 69.62C105.952 69.788 105.568 69.872 105.124 69.872ZM103.882 66.074C103.882 66.314 103.936 66.53 104.044 66.722C104.158 66.914 104.308 67.067 104.494 67.181C104.686 67.289 104.899 67.343 105.133 67.343C105.451 67.343 105.721 67.262 105.943 67.1C106.165 66.932 106.315 66.719 106.393 66.461V65.687C106.315 65.429 106.162 65.222 105.934 65.066C105.706 64.904 105.439 64.823 105.133 64.823C104.899 64.823 104.686 64.877 104.494 64.985C104.308 65.093 104.158 65.24 104.044 65.426C103.936 65.612 103.882 65.828 103.882 66.074ZM109.53 64.238L109.62 65.318L109.584 65.174C109.686 64.946 109.827 64.751 110.007 64.589C110.193 64.427 110.385 64.304 110.583 64.22C110.787 64.13 110.958 64.085 111.096 64.085L111.051 64.985C110.769 64.967 110.52 65.021 110.304 65.147C110.094 65.273 109.929 65.441 109.809 65.651C109.689 65.861 109.629 66.086 109.629 66.326V68H108.72V64.238H109.53ZM113.626 68.09C113.272 68.09 112.951 68.015 112.663 67.865C112.375 67.715 112.147 67.496 111.979 67.208C111.811 66.914 111.727 66.551 111.727 66.119C111.727 65.699 111.814 65.339 111.988 65.039C112.168 64.733 112.402 64.499 112.69 64.337C112.984 64.169 113.302 64.085 113.644 64.085C114.004 64.085 114.301 64.16 114.535 64.31C114.769 64.46 114.949 64.64 115.075 64.85L115.021 64.994L115.111 64.238H115.948V68H115.039V67.046L115.129 67.271C115.105 67.319 115.054 67.388 114.976 67.478C114.898 67.568 114.796 67.661 114.67 67.757C114.544 67.847 114.391 67.925 114.211 67.991C114.037 68.057 113.842 68.09 113.626 68.09ZM113.869 67.343C114.169 67.343 114.421 67.265 114.625 67.109C114.835 66.947 114.973 66.728 115.039 66.452V65.678C114.967 65.432 114.82 65.228 114.598 65.066C114.382 64.904 114.13 64.823 113.842 64.823C113.626 64.823 113.428 64.877 113.248 64.985C113.068 65.087 112.924 65.234 112.816 65.426C112.708 65.612 112.654 65.828 112.654 66.074C112.654 66.314 112.708 66.53 112.816 66.722C112.93 66.914 113.08 67.067 113.266 67.181C113.452 67.289 113.653 67.343 113.869 67.343ZM117.683 68V65.048H117.044V64.238H117.683V62.699C117.683 62.165 117.809 61.751 118.061 61.457C118.319 61.157 118.694 61.007 119.186 61.007C119.318 61.007 119.462 61.028 119.618 61.07C119.78 61.106 119.924 61.166 120.05 61.25L119.663 61.907C119.609 61.847 119.546 61.808 119.474 61.79C119.408 61.766 119.342 61.754 119.276 61.754C119.066 61.754 118.898 61.829 118.772 61.979C118.652 62.123 118.592 62.369 118.592 62.717V64.238H119.78V65.048H118.592V68H117.683ZM120.857 64.238H121.766V68H120.857V64.238ZM120.812 62.888C120.812 62.75 120.866 62.633 120.974 62.537C121.088 62.441 121.211 62.393 121.343 62.393C121.475 62.393 121.595 62.441 121.703 62.537C121.811 62.633 121.865 62.75 121.865 62.888C121.865 63.038 121.811 63.158 121.703 63.248C121.595 63.338 121.475 63.383 121.343 63.383C121.211 63.383 121.088 63.338 120.974 63.248C120.866 63.158 120.812 63.038 120.812 62.888ZM126.265 67.649C126.097 67.787 125.893 67.895 125.653 67.973C125.419 68.051 125.182 68.09 124.942 68.09C124.534 68.09 124.171 68.009 123.853 67.847C123.541 67.685 123.298 67.457 123.124 67.163C122.95 66.869 122.863 66.521 122.863 66.119C122.863 65.711 122.956 65.36 123.142 65.066C123.328 64.772 123.571 64.547 123.871 64.391C124.177 64.229 124.504 64.148 124.852 64.148C125.164 64.148 125.437 64.19 125.671 64.274C125.911 64.358 126.118 64.475 126.292 64.625L125.842 65.21C125.74 65.126 125.611 65.051 125.455 64.985C125.299 64.919 125.125 64.886 124.933 64.886C124.717 64.886 124.519 64.94 124.339 65.048C124.165 65.156 124.027 65.303 123.925 65.489C123.823 65.675 123.772 65.885 123.772 66.119C123.772 66.347 123.823 66.554 123.925 66.74C124.033 66.926 124.18 67.073 124.366 67.181C124.558 67.289 124.774 67.343 125.014 67.343C125.17 67.343 125.314 67.319 125.446 67.271C125.584 67.223 125.704 67.16 125.806 67.082L126.265 67.649ZM127.002 66.083C127.002 65.705 127.092 65.366 127.272 65.066C127.452 64.76 127.701 64.52 128.019 64.346C128.337 64.172 128.7 64.085 129.108 64.085C129.522 64.085 129.882 64.172 130.188 64.346C130.5 64.52 130.74 64.76 130.908 65.066C131.082 65.366 131.169 65.705 131.169 66.083C131.169 66.461 131.082 66.803 130.908 67.109C130.734 67.409 130.491 67.649 130.179 67.829C129.873 68.003 129.51 68.09 129.09 68.09C128.694 68.09 128.337 68.009 128.019 67.847C127.707 67.685 127.458 67.454 127.272 67.154C127.092 66.848 127.002 66.491 127.002 66.083ZM127.92 66.092C127.92 66.326 127.971 66.539 128.073 66.731C128.175 66.917 128.313 67.067 128.487 67.181C128.667 67.289 128.865 67.343 129.081 67.343C129.423 67.343 129.702 67.223 129.918 66.983C130.14 66.743 130.251 66.446 130.251 66.092C130.251 65.738 130.14 65.441 129.918 65.201C129.702 64.955 129.423 64.832 129.081 64.832C128.859 64.832 128.661 64.889 128.487 65.003C128.313 65.117 128.175 65.27 128.073 65.462C127.971 65.654 127.92 65.864 127.92 66.092ZM134.524 68.081C134.248 68.081 133.984 68.033 133.732 67.937C133.48 67.835 133.267 67.691 133.093 67.505L133.48 66.983C133.636 67.133 133.798 67.247 133.966 67.325C134.14 67.403 134.302 67.442 134.452 67.442C134.626 67.442 134.779 67.409 134.911 67.343C135.043 67.271 135.109 67.154 135.109 66.992C135.109 66.86 135.064 66.758 134.974 66.686C134.89 66.614 134.782 66.554 134.65 66.506C134.518 66.458 134.377 66.413 134.227 66.371C133.915 66.269 133.675 66.125 133.507 65.939C133.345 65.747 133.264 65.522 133.264 65.264C133.264 65.066 133.312 64.88 133.408 64.706C133.51 64.526 133.663 64.382 133.867 64.274C134.071 64.16 134.323 64.103 134.623 64.103C134.887 64.103 135.124 64.136 135.334 64.202C135.544 64.262 135.739 64.367 135.919 64.517L135.568 65.066C135.46 64.958 135.331 64.877 135.181 64.823C135.037 64.763 134.905 64.73 134.785 64.724C134.623 64.724 134.482 64.763 134.362 64.841C134.242 64.913 134.182 65.012 134.182 65.138C134.182 65.264 134.224 65.366 134.308 65.444C134.392 65.516 134.5 65.576 134.632 65.624C134.77 65.666 134.908 65.711 135.046 65.759C135.322 65.849 135.55 65.972 135.73 66.128C135.916 66.284 136.009 66.512 136.009 66.812C136.009 67.04 135.955 67.25 135.847 67.442C135.739 67.634 135.574 67.79 135.352 67.91C135.136 68.024 134.86 68.081 134.524 68.081ZM137.521 62.591H138.439V64.247H139.447V64.958H138.439V68H137.521V64.958H136.855V64.247H137.521V62.591ZM141.654 68.153C141.306 68.153 141.021 68.048 140.799 67.838C140.577 67.628 140.46 67.358 140.448 67.028V64.238H141.357V66.704C141.369 66.902 141.426 67.061 141.528 67.181C141.63 67.301 141.792 67.367 142.014 67.379C142.218 67.379 142.401 67.319 142.563 67.199C142.725 67.073 142.851 66.902 142.941 66.686C143.037 66.47 143.085 66.227 143.085 65.957V64.238H143.994V68H143.175L143.103 67.118L143.139 67.262C143.025 67.52 142.833 67.733 142.563 67.901C142.299 68.069 141.996 68.153 141.654 68.153ZM146.962 68.09C146.608 68.09 146.29 68.009 146.008 67.847C145.726 67.679 145.504 67.442 145.342 67.136C145.18 66.83 145.099 66.473 145.099 66.065C145.099 65.645 145.186 65.288 145.36 64.994C145.534 64.7 145.768 64.475 146.062 64.319C146.362 64.163 146.698 64.085 147.07 64.085C147.358 64.085 147.631 64.145 147.889 64.265C148.153 64.379 148.36 64.541 148.51 64.751L148.474 65.066V61.007H149.383V68H148.465V67.1L148.564 67.343C148.384 67.559 148.156 67.739 147.88 67.883C147.61 68.021 147.304 68.09 146.962 68.09ZM147.241 67.325C147.559 67.325 147.823 67.244 148.033 67.082C148.249 66.914 148.393 66.692 148.465 66.416V65.669C148.399 65.417 148.252 65.21 148.024 65.048C147.802 64.886 147.541 64.805 147.241 64.805C147.025 64.805 146.824 64.859 146.638 64.967C146.452 65.069 146.302 65.216 146.188 65.408C146.08 65.594 146.026 65.81 146.026 66.056C146.026 66.29 146.08 66.503 146.188 66.695C146.302 66.887 146.452 67.04 146.638 67.154C146.824 67.268 147.025 67.325 147.241 67.325ZM152.566 68.09C152.134 68.09 151.762 68.006 151.45 67.838C151.138 67.664 150.898 67.427 150.73 67.127C150.562 66.821 150.478 66.476 150.478 66.092C150.478 65.72 150.571 65.384 150.757 65.084C150.949 64.778 151.204 64.535 151.522 64.355C151.84 64.175 152.194 64.085 152.584 64.085C153.088 64.085 153.505 64.232 153.835 64.526C154.171 64.814 154.396 65.222 154.51 65.75L151.441 66.812L151.225 66.29L153.691 65.39L153.502 65.516C153.43 65.324 153.316 65.159 153.16 65.021C153.004 64.877 152.791 64.805 152.521 64.805C152.185 64.805 151.909 64.922 151.693 65.156C151.483 65.384 151.378 65.678 151.378 66.038C151.378 66.422 151.492 66.731 151.72 66.965C151.948 67.199 152.236 67.316 152.584 67.316C152.746 67.316 152.902 67.289 153.052 67.235C153.202 67.175 153.343 67.097 153.475 67.001L153.889 67.676C153.697 67.802 153.484 67.904 153.25 67.982C153.022 68.054 152.794 68.09 152.566 68.09ZM156.349 64.238L156.43 65.111L156.394 64.985C156.514 64.715 156.706 64.499 156.97 64.337C157.24 64.175 157.555 64.094 157.915 64.094C158.269 64.094 158.56 64.199 158.788 64.409C159.016 64.613 159.133 64.883 159.139 65.219V68H158.23V65.534C158.224 65.342 158.167 65.186 158.059 65.066C157.951 64.94 157.783 64.874 157.555 64.868C157.237 64.868 156.97 65 156.754 65.264C156.544 65.528 156.439 65.867 156.439 66.281V68H155.53V64.238H156.349ZM160.926 62.591H161.844V64.247H162.852V64.958H161.844V68H160.926V64.958H160.26V64.247H160.926V62.591ZM165.618 68.09C165.186 68.09 164.814 68.006 164.502 67.838C164.19 67.664 163.95 67.427 163.782 67.127C163.614 66.821 163.53 66.476 163.53 66.092C163.53 65.72 163.623 65.384 163.809 65.084C164.001 64.778 164.256 64.535 164.574 64.355C164.892 64.175 165.246 64.085 165.636 64.085C166.14 64.085 166.557 64.232 166.887 64.526C167.223 64.814 167.448 65.222 167.562 65.75L164.493 66.812L164.277 66.29L166.743 65.39L166.554 65.516C166.482 65.324 166.368 65.159 166.212 65.021C166.056 64.877 165.843 64.805 165.573 64.805C165.237 64.805 164.961 64.922 164.745 65.156C164.535 65.384 164.43 65.678 164.43 66.038C164.43 66.422 164.544 66.731 164.772 66.965C165 67.199 165.288 67.316 165.636 67.316C165.798 67.316 165.954 67.289 166.104 67.235C166.254 67.175 166.395 67.097 166.527 67.001L166.941 67.676C166.749 67.802 166.536 67.904 166.302 67.982C166.074 68.054 165.846 68.09 165.618 68.09ZM169.671 68.081C169.395 68.081 169.131 68.033 168.879 67.937C168.627 67.835 168.414 67.691 168.24 67.505L168.627 66.983C168.783 67.133 168.945 67.247 169.113 67.325C169.287 67.403 169.449 67.442 169.599 67.442C169.773 67.442 169.926 67.409 170.058 67.343C170.19 67.271 170.256 67.154 170.256 66.992C170.256 66.86 170.211 66.758 170.121 66.686C170.037 66.614 169.929 66.554 169.797 66.506C169.665 66.458 169.524 66.413 169.374 66.371C169.062 66.269 168.822 66.125 168.654 65.939C168.492 65.747 168.411 65.522 168.411 65.264C168.411 65.066 168.459 64.88 168.555 64.706C168.657 64.526 168.81 64.382 169.014 64.274C169.218 64.16 169.47 64.103 169.77 64.103C170.034 64.103 170.271 64.136 170.481 64.202C170.691 64.262 170.886 64.367 171.066 64.517L170.715 65.066C170.607 64.958 170.478 64.877 170.328 64.823C170.184 64.763 170.052 64.73 169.932 64.724C169.77 64.724 169.629 64.763 169.509 64.841C169.389 64.913 169.329 65.012 169.329 65.138C169.329 65.264 169.371 65.366 169.455 65.444C169.539 65.516 169.647 65.576 169.779 65.624C169.917 65.666 170.055 65.711 170.193 65.759C170.469 65.849 170.697 65.972 170.877 66.128C171.063 66.284 171.156 66.512 171.156 66.812C171.156 67.04 171.102 67.25 170.994 67.442C170.886 67.634 170.721 67.79 170.499 67.91C170.283 68.024 170.007 68.081 169.671 68.081ZM175.387 67.649C175.219 67.787 175.015 67.895 174.775 67.973C174.541 68.051 174.304 68.09 174.064 68.09C173.656 68.09 173.293 68.009 172.975 67.847C172.663 67.685 172.42 67.457 172.246 67.163C172.072 66.869 171.985 66.521 171.985 66.119C171.985 65.711 172.078 65.36 172.264 65.066C172.45 64.772 172.693 64.547 172.993 64.391C173.299 64.229 173.626 64.148 173.974 64.148C174.286 64.148 174.559 64.19 174.793 64.274C175.033 64.358 175.24 64.475 175.414 64.625L174.964 65.21C174.862 65.126 174.733 65.051 174.577 64.985C174.421 64.919 174.247 64.886 174.055 64.886C173.839 64.886 173.641 64.94 173.461 65.048C173.287 65.156 173.149 65.303 173.047 65.489C172.945 65.675 172.894 65.885 172.894 66.119C172.894 66.347 172.945 66.554 173.047 66.74C173.155 66.926 173.302 67.073 173.488 67.181C173.68 67.289 173.896 67.343 174.136 67.343C174.292 67.343 174.436 67.319 174.568 67.271C174.706 67.223 174.826 67.16 174.928 67.082L175.387 67.649ZM176.124 66.083C176.124 65.705 176.214 65.366 176.394 65.066C176.574 64.76 176.823 64.52 177.141 64.346C177.459 64.172 177.822 64.085 178.23 64.085C178.644 64.085 179.004 64.172 179.31 64.346C179.622 64.52 179.862 64.76 180.03 65.066C180.204 65.366 180.291 65.705 180.291 66.083C180.291 66.461 180.204 66.803 180.03 67.109C179.856 67.409 179.613 67.649 179.301 67.829C178.995 68.003 178.632 68.09 178.212 68.09C177.816 68.09 177.459 68.009 177.141 67.847C176.829 67.685 176.58 67.454 176.394 67.154C176.214 66.848 176.124 66.491 176.124 66.083ZM177.042 66.092C177.042 66.326 177.093 66.539 177.195 66.731C177.297 66.917 177.435 67.067 177.609 67.181C177.789 67.289 177.987 67.343 178.203 67.343C178.545 67.343 178.824 67.223 179.04 66.983C179.262 66.743 179.373 66.446 179.373 66.092C179.373 65.738 179.262 65.441 179.04 65.201C178.824 64.955 178.545 64.832 178.203 64.832C177.981 64.832 177.783 64.889 177.609 65.003C177.435 65.117 177.297 65.27 177.195 65.462C177.093 65.654 177.042 65.864 177.042 66.092Z" fill="white"/>
</svg>
