<svg width="541" height="541" viewBox="0 0 541 541" fill="none" xmlns="http://www.w3.org/2000/svg">
<circle cx="270.5" cy="270.5" r="270.5" fill="#52915A"/>
<path d="M199.3 155.4H211.9V206.5H199.3V155.4ZM174.3 177.8H188V188.3H174.3V177.8ZM181.8 156.8H194.2V205.9H181.8V156.8ZM149 209.7H211.9V232.8H162.3V240.3H149.1V223.8H198.9V219.2H149V209.7ZM149.1 237.6H214.5V247.3H149.1V237.6ZM132.6 162.5H176.3V172.5H132.6V162.5ZM154.5 174.7C165.7 174.7 173.8 180.8 173.8 189.9C173.8 199.1 165.7 205.2 154.5 205.2C143.4 205.2 135.2 199.1 135.2 189.9C135.2 180.8 143.4 174.7 154.5 174.7ZM154.5 183.8C150 183.8 146.8 186 146.8 189.9C146.8 193.9 150 196.1 154.5 196.1C159.1 196.1 162.2 193.9 162.2 189.9C162.2 186 159.1 183.8 154.5 183.8ZM147.8 155.2H161V170.7H147.8V155.2ZM225.092 226.9H308.892V237.7H225.092V226.9ZM260.192 209.4H273.492V231.3H260.192V209.4ZM234.492 161.3H299.492V192.1H247.892V207.7H234.692V181.7H286.292V171.8H234.492V161.3ZM234.692 202.4H301.592V213.1H234.692V202.4ZM142.5 293H200.8V303.6H142.5V293ZM133 356.6H216.7V367.3H133V356.6ZM195.5 293H208.6V301.1C208.6 312.3 208.7 325.4 204.4 345.5L191.3 344.1C195.5 325.3 195.5 311.8 195.5 301.1V293ZM197.9 315.3V325.3L141.4 328.4L139.6 317.1L197.9 315.3ZM162.7 334.4H176V360.5H162.7V334.4ZM288.792 285.2H302.092V378.1H288.792V285.2ZM229.992 345.7H238.192C254.592 345.7 267.692 345.1 282.392 342.6L283.692 353.3C268.692 356 255.092 356.5 238.192 356.5H229.992V345.7ZM229.892 293.1H273.592V328.9H243.492V349.7H229.992V318.4H259.992V303.7H229.892V293.1ZM341.784 291.7C355.884 291.7 366.084 304.5 366.084 324.7C366.084 345.1 355.884 357.9 341.784 357.9C327.684 357.9 317.484 345.1 317.484 324.7C317.484 304.5 327.684 291.7 341.784 291.7ZM341.784 303.8C334.884 303.8 330.284 311.1 330.284 324.7C330.284 338.5 334.884 345.9 341.784 345.9C348.684 345.9 353.384 338.5 353.384 324.7C353.384 311.1 348.684 303.8 341.784 303.8ZM376.184 285.3H389.584V377.9H376.184V285.3ZM386.584 320.2H402.984V331.2H386.584V320.2ZM438.18 345.123L436.373 297.027H450.973L449.166 345.123H438.18ZM443.746 369.83C441.435 369.83 439.465 369.016 437.838 367.389C436.21 365.761 435.396 363.775 435.396 361.432C435.396 359.088 436.21 357.102 437.838 355.475C439.465 353.847 441.435 353.033 443.746 353.033C446.122 353.033 448.108 353.847 449.703 355.475C451.331 357.102 452.145 359.088 452.145 361.432C452.145 363.775 451.331 365.761 449.703 367.389C448.108 369.016 446.122 369.83 443.746 369.83Z" fill="white"/>
</svg>
